<svg width="500" height="500" viewBox="0 0 500 500" fill="none" xmlns="http://www.w3.org/2000/svg">
<path d="M54 176H364V409C364 422.807 352.807 434 339 434H79C65.1929 434 54 422.807 54 409V176Z" fill="#0094FF"/>
<path d="M375 166.667H395.833C417.935 166.667 439.131 175.446 454.759 191.074C470.387 206.702 479.167 227.899 479.167 250C479.167 272.101 470.387 293.298 454.759 308.926C439.131 324.554 417.935 333.333 395.833 333.333H375M375 166.667H41.6667V354.167C41.6667 376.268 50.4464 397.464 66.0745 413.092C81.7025 428.72 102.899 437.5 125 437.5H291.667C313.768 437.5 334.964 428.72 350.592 413.092C366.22 397.464 375 376.268 375 354.167V166.667ZM125 20.8334V83.3334M208.333 20.8334V83.3334M291.667 20.8334V83.3334" stroke="#0094FF" stroke-width="30" stroke-linecap="round" stroke-linejoin="round"/>
<path d="M263 357.3C260.267 360.3 257.2 363.133 253.8 365.8C250.4 368.4 246.667 370.667 242.6 372.6C238.533 374.467 234.1 375.933 229.3 377C224.5 378.133 219.333 378.7 213.8 378.7C204.2 378.7 195.8 376.633 188.6 372.5C181.467 368.3 175.533 362.633 170.8 355.5C166.133 348.367 162.633 340.033 160.3 330.5C157.967 320.967 156.8 310.8 156.8 300C156.8 293.267 157.233 286.767 158.1 280.5C159.033 274.167 160.467 268.233 162.4 262.7C164.333 257.167 166.833 252.133 169.9 247.6C173.033 243 176.8 239.067 181.2 235.8C185.6 232.467 190.667 229.9 196.4 228.1C202.2 226.233 208.767 225.3 216.1 225.3C223.767 225.3 231 226.533 237.8 229C244.667 231.4 250.5 234.9 255.3 239.5L246.3 250.2C243.1 248.067 239.1 246.2 234.3 244.6C229.5 243 223.967 242.2 217.7 242.2C212.3 242.2 207.567 242.9 203.5 244.3C199.433 245.7 195.9 247.667 192.9 250.2C189.967 252.733 187.533 255.767 185.6 259.3C183.667 262.767 182.1 266.633 180.9 270.9C179.767 275.167 178.967 279.733 178.5 284.6C178.033 289.467 177.8 294.5 177.8 299.7C177.8 304.3 178.033 309.033 178.5 313.9C179.033 318.7 179.867 323.4 181 328C182.133 332.6 183.667 336.933 185.6 341C187.533 345.067 189.9 348.633 192.7 351.7C195.567 354.767 198.933 357.2 202.8 359C206.733 360.8 211.267 361.7 216.4 361.7C219.4 361.7 222.367 361.367 225.3 360.7C228.233 360.033 231 359.167 233.6 358.1C236.2 357.033 238.5 355.867 240.5 354.6C242.567 353.267 244.2 351.967 245.4 350.7V315.8L214 313.8V300.8H263V357.3Z" fill="#F2F2F2"/>
<path d="M359.639 300.051V314.327C351.495 314.327 345.813 315.96 342.594 319.227C339.421 322.494 337.835 327.774 337.835 335.065V350.832C337.835 359.592 336.604 366.599 334.142 371.855C331.727 377.158 328.318 381.159 323.915 383.858C319.559 386.557 314.374 388.356 308.361 389.256C302.395 390.155 295.813 390.605 288.616 390.605V367.949C294.204 367.949 298.441 367.215 301.33 365.747C304.265 364.327 306.254 362.101 307.295 359.071C308.337 356.088 308.858 352.324 308.858 347.778V327.04C308.858 323.394 309.521 319.961 310.847 316.741C312.172 313.474 314.634 310.61 318.233 308.148C321.831 305.638 326.969 303.673 333.645 302.253C340.321 300.785 348.986 300.051 359.639 300.051ZM288.616 210.847C295.813 210.847 302.395 211.296 308.361 212.196C314.374 213.096 319.559 214.895 323.915 217.594C328.318 220.293 331.727 224.294 334.142 229.597C336.604 234.852 337.835 241.86 337.835 250.619V266.315C337.835 273.607 339.421 278.886 342.594 282.153C345.813 285.42 351.495 287.054 359.639 287.054V301.33C348.986 301.33 340.321 300.619 333.645 299.199C326.969 297.731 321.831 295.766 318.233 293.304C314.634 290.795 312.172 287.93 310.847 284.71C309.521 281.443 308.858 278.01 308.858 274.412V253.673C308.858 249.08 308.337 245.293 307.295 242.31C306.254 239.279 304.265 237.054 301.33 235.634C298.441 234.166 294.204 233.432 288.616 233.432V210.847ZM359.639 287.054V314.327H334.142V287.054H359.639Z" fill="#88CDFF"/>
<path d="M58.179 301.33V287.054C66.3703 287.054 72.0521 285.42 75.2244 282.153C78.3968 278.886 79.983 273.607 79.983 266.315V250.619C79.983 241.86 81.1903 234.852 83.6051 229.597C86.0672 224.294 89.4763 220.293 93.8324 217.594C98.2358 214.895 103.444 213.096 109.457 212.196C115.471 211.296 122.052 210.847 129.202 210.847V233.432C123.615 233.432 119.353 234.166 116.418 235.634C113.529 237.054 111.564 239.279 110.523 242.31C109.481 245.293 108.96 249.08 108.96 253.673V274.412C108.96 278.01 108.297 281.443 106.972 284.71C105.646 287.93 103.184 290.795 99.5852 293.304C95.9867 295.766 90.8494 297.731 84.1733 299.199C77.4972 300.619 68.8324 301.33 58.179 301.33ZM129.202 390.605C122.052 390.605 115.471 390.155 109.457 389.256C103.444 388.356 98.2358 386.557 93.8324 383.858C89.4763 381.159 86.0672 377.158 83.6051 371.855C81.1903 366.599 79.983 359.592 79.983 350.832V335.065C79.983 327.774 78.3968 322.494 75.2244 319.227C72.0521 315.96 66.3703 314.327 58.179 314.327V300.051C68.8324 300.051 77.4972 300.785 84.1733 302.253C90.8494 303.673 95.9867 305.638 99.5852 308.148C103.184 310.61 105.646 313.474 106.972 316.741C108.297 319.961 108.96 323.394 108.96 327.04V347.778C108.96 352.324 109.481 356.088 110.523 359.071C111.564 362.101 113.529 364.327 116.418 365.747C119.353 367.215 123.615 367.949 129.202 367.949V390.605ZM58.179 314.327V287.054H83.6761V314.327H58.179Z" fill="#88CDFF"/>
</svg>
